<?xml version="1.0" standalone="no"?>
<!DOCTYPE svg PUBLIC "-//W3C//DTD SVG 1.1//EN" "http://www.w3.org/Graphics/SVG/1.1/DTD/svg11.dtd" >
<svg xmlns="http://www.w3.org/2000/svg">
<metadata></metadata>
<defs>
<font id="highlandgothiclightflfregular" horiz-adv-x="1261" >
<font-face units-per-em="2048" ascent="1638" descent="-410" />
<missing-glyph horiz-adv-x="729" />
<glyph horiz-adv-x="2048" />
<glyph horiz-adv-x="2048" />
<glyph horiz-adv-x="682" />
<glyph horiz-adv-x="401" d="M39 1536q0 -68 47 -116t115 -48t114.5 48t46.5 116v76h-83v-35q0 -31 -23 -53.5t-55 -22.5q-33 0 -55.5 22.5t-22.5 53.5v35h-84v-76z" />
<glyph horiz-adv-x="323" d="M39 1374h248v238h-248v-238z" />
<glyph horiz-adv-x="331" d="M39 1473q0 -53 37 -91.5t90 -38.5t91 38t38 92q0 53 -38 89.5t-91 36.5t-90 -36.5t-37 -89.5zM102 1473q0 27 18.5 45t45.5 18t45 -18t18 -45t-18 -45.5t-45 -18.5t-45.5 18.5t-18.5 45.5z" />
<glyph horiz-adv-x="888" d="M39 393h811v623l-188 188h-623v-811zM49 403v791h608l183 -182v-609h-791zM121 795q0 -68 25.5 -126.5t69.5 -101.5t102.5 -68.5t125.5 -25.5q51 0 101.5 16.5t97.5 51.5l-72 71q-10 -6 -17 -11t-24 -13q27 12 39.5 38.5t12.5 51.5q0 23 -8 46t-31 50q-12 14 -29.5 28.5 t-36 29t-34 25.5t-23.5 22q-12 16 -19.5 28.5t-7.5 30.5q0 29 21.5 52.5t62.5 23.5q16 0 39 -8.5t59 -28.5l70 70q-47 39 -98 55t-103 16q-68 0 -126 -25.5t-102 -69.5t-69.5 -102.5t-25.5 -125.5zM131 795q0 63 24.5 120.5t67.5 100.5t99.5 67.5t121.5 24.5 q47 0 93.5 -13.5t93.5 -47.5l-58 -58q-23 16 -50 25.5t-44 9.5q-39 0 -68.5 -22.5t-29.5 -63.5q0 -16 6 -31.5t25 -34.5q14 -14 30.5 -27.5t26.5 -19.5q35 -27 48.5 -40t17.5 -17q20 -29 28 -48.5t8 -41.5q0 -29 -13 -49.5t-29.5 -34.5t-33 -21.5t-24.5 -9.5q41 6 66.5 18.5 t33.5 16.5l56 -55q-47 -33 -94.5 -45.5t-88.5 -12.5q-66 0 -122 25t-99 65.5t-67.5 97t-24.5 122.5zM217 795q0 -66 24.5 -108t56.5 -68.5t63.5 -37t46.5 -10.5q39 0 63.5 25t24.5 49q0 41 -27 68q-10 8 -27.5 21.5t-36 26.5t-37 27.5t-28.5 26.5q-20 23 -28.5 49.5 t-8.5 50.5q0 27 11 51t34 38q-72 -35 -101.5 -94.5t-29.5 -114.5zM229 795q0 43 17.5 88t52.5 73q-4 -10 -5 -21t-1 -20q0 -55 37 -106q4 -4 14 -13.5t45 -35.5q29 -23 45.5 -34t26.5 -21q10 -14 17 -27.5t7 -32.5q0 -23 -23.5 -42t-53.5 -19q-25 0 -61 15t-60 44 q-29 29 -43.5 64.5t-14.5 87.5zM627 662l69 -68q37 43 53.5 96.5t16.5 104.5q0 109 -70 200l-69 -69q16 -23 30.5 -53.5t14.5 -77.5q0 -33 -11.5 -69t-33.5 -64zM641 664q41 55 41 131q0 45 -12.5 74.5t-28.5 56.5l55 53q33 -47 45.5 -95t12.5 -89q0 -115 -60 -187z" />
<glyph unicode="&#xd;" horiz-adv-x="411" d="M102 0h207v1108h-207v-1108z" />
<glyph horiz-adv-x="1714" d="M20 0h150l870 1577h-149zM20 631h148v946h-148v-946zM809 254q0 -57 20.5 -106.5t70.5 -86t136 -57t215 -20.5q131 0 216 20.5t135.5 57t71 86t20.5 106.5q0 88 -45 140t-113 87q25 12 50.5 28.5t47 41t34.5 58.5t13 83q0 133 -116.5 195.5t-313.5 62.5q-98 0 -177 -15 t-135 -47t-87 -80t-31 -116q0 -49 13.5 -83t35 -58.5t47 -40.5t50.5 -29q-68 -35 -113 -87t-45 -140zM965 262q0 96 66 135t220 39t219.5 -39t65.5 -135q0 -98 -67.5 -134t-217.5 -36t-218 36t-68 134zM977 694q0 41 13.5 70t44 46t83.5 25.5t133 8.5t133.5 -8.5t84 -25.5 t44 -46t13.5 -70q0 -43 -13.5 -71.5t-44 -46t-84 -25.5t-133.5 -8t-133 8t-83.5 25.5t-44 46t-13.5 71.5z" />
<glyph horiz-adv-x="1130" d="M51 936h205v-936h209v936h358l-2 -936h209v1108h-565v72q0 55 14.5 90t39 54t56 27.5t66.5 8.5h180v-51h209v223h-440q-92 0 -155.5 -26.5t-103.5 -74t-57.5 -112t-17.5 -137.5v-74h-205v-172z" />
<glyph horiz-adv-x="1130" d="M51 936h205v-936h209v936h358l-2 -936h209v1532h-440q-92 0 -155.5 -26.5t-103.5 -74t-57.5 -112t-17.5 -137.5v-74h-205v-172zM465 1108v72q0 55 14.5 90t39 54t56 27.5t66.5 8.5h180v-252h-356z" />
<glyph horiz-adv-x="1308" d="M51 688l96 -170l150 86v-61q0 -70 9 -135.5t34 -124t65.5 -108.5t104.5 -89q72 -45 135.5 -65.5t128.5 -20.5h494v193h-391q-55 0 -113.5 11t-108 43t-81 89t-31.5 149v263l245 143l-96 168l-149 -86v604h-246v-748z" />
<glyph horiz-adv-x="727" d="M51 731l84 -145l125 71v-657h209v778l209 121l-86 148l-123 -72v557h-209v-678z" />
<glyph horiz-adv-x="1474" d="M82 0h1313v193h-1037l1037 1087v297h-1301v-193h1071l-1083 -1136v-248zM575 1858q0 -68 48.5 -115t113.5 -47q68 0 116 47t48 115v77h-86v-34q0 -33 -22.5 -55.5t-55.5 -22.5q-31 0 -53 22.5t-22 55.5v34h-87v-77z" />
<glyph horiz-adv-x="1056" d="M51 0h955v170h-721l721 688v250h-955v-172h744l-744 -709v-227zM367 1419q0 -66 48 -114t113 -48q68 0 116 48.5t48 113.5v78h-86v-35q0 -33 -22.5 -55.5t-55.5 -22.5q-31 0 -53 22.5t-22 55.5v35h-86v-78z" />
<glyph unicode=" "  horiz-adv-x="729" />
<glyph unicode="&#x09;" horiz-adv-x="729" />
<glyph unicode="&#xa0;" horiz-adv-x="729" />
<glyph unicode="!" horiz-adv-x="409" d="M82 0h246v238h-246v-238zM82 373h246v1204h-246v-1204z" />
<glyph unicode="&#x22;" horiz-adv-x="694" d="M39 1341l80 -301h86l82 301v236h-248v-236zM408 1341l81 -301h84l82 301v236h-247v-236z" />
<glyph unicode="#" horiz-adv-x="1056" d="M51 856h228v-227h133v227h227v-227h133v227h234v133h-234v228h234v133h-234v227h-133v-227h-227v227h-133v-227h-228v-133h228v-228h-228v-133zM412 989v228h227v-228h-227z" />
<glyph unicode="$" horiz-adv-x="985" d="M61 684h400v-111h82v111h114q117 0 183.5 71.5t66.5 188.5q0 119 -66.5 191.5t-183.5 72.5h-114v236h329v133h-329v113h-82v-113h-109q-147 0 -219 -77t-72 -193q0 -119 72 -186.5t219 -67.5h109v-236h-400v-133zM256 1327q0 63 36 90t89 27h80v-236h-80q-53 0 -89 27 t-36 92zM543 817v236h47q53 0 90 -27t37 -92q0 -61 -37 -89t-90 -28h-47z" />
<glyph unicode="%" horiz-adv-x="1845" d="M61 1200q0 -211 101.5 -311.5t279.5 -100.5t279.5 100.5t101.5 311.5q0 213 -101.5 312.5t-279.5 99.5t-279.5 -99.5t-101.5 -312.5zM197 1200q0 92 16 153.5t48 97.5t78 50.5t103 14.5t103.5 -14.5t78 -50.5t48 -97.5t16.5 -153.5t-16.5 -152.5t-48 -96.5t-77.5 -50 t-104 -14q-57 0 -103 14t-78 50t-48 96.5t-16 152.5zM551 0h127l592 1577h-127zM1022 377q0 -211 101.5 -311.5t279.5 -100.5t279.5 100.5t101.5 311.5q0 213 -101.5 312t-279.5 99t-279.5 -99t-101.5 -312zM1157 377q0 92 16.5 153.5t48 97.5t78 50t103.5 14t103 -14 t78 -50t48.5 -97.5t16.5 -153.5t-16.5 -152.5t-48.5 -96.5t-78 -50.5t-103 -14.5t-103.5 14.5t-78 50.5t-48 96.5t-16.5 152.5z" />
<glyph unicode="&#x26;" horiz-adv-x="1744" d="M61 469q0 -133 53.5 -224t144.5 -149.5t212 -84t256 -25.5q133 0 260 29.5t225.5 98t159 179t60.5 272.5v180h254v193h-730v-193h254v-133q0 -127 -37.5 -210t-104.5 -132t-155 -69.5t-186 -20.5q-211 0 -307 76t-96 223q0 78 35.5 129t92 82t127 43t140.5 12h94v193 h-188q-68 0 -122 11.5t-93 38t-59.5 70.5t-20.5 109q0 66 20.5 108t59.5 66.5t93 33.5t122 9h569v193h-623q-113 0 -205 -28.5t-156.5 -82t-100 -129t-35.5 -170.5q0 -125 61.5 -212t177.5 -138q-47 -20 -92 -55t-80 -80t-57.5 -99.5t-22.5 -113.5z" />
<glyph unicode="'" horiz-adv-x="321" d="M39 1341l80 -301h86l80 301v236h-246v-236z" />
<glyph unicode="(" horiz-adv-x="698" d="M61 788q0 -96 18.5 -207.5t60.5 -228t110.5 -233.5t171.5 -221h215q-170 162 -273.5 382t-103.5 508q0 145 27.5 272.5t77 238t119 204.5t153.5 176h-215q-102 -104 -171 -220t-111 -232.5t-60.5 -229t-18.5 -209.5z" />
<glyph unicode=")" horiz-adv-x="698" d="M61 -102h215q100 104 169 221t112 233.5t61.5 228t18.5 207.5t-18.5 209t-61.5 229.5t-112 232.5t-169 220h-215q84 -82 154 -176t119 -204.5t76.5 -237.5t27.5 -273q0 -145 -27.5 -271t-76.5 -236.5t-119 -205.5t-154 -177z" />
<glyph unicode="*" horiz-adv-x="634" d="M51 1329l144 -47l-93 -125l121 -88l88 123l97 -123l120 88l-88 123l144 45l-47 145l-146 -45v152h-151v-152l-142 48z" />
<glyph unicode="+" horiz-adv-x="808" d="M39 692h268v-268h197v268h266v197h-266v266h-197v-266h-268v-197z" />
<glyph unicode="," horiz-adv-x="323" d="M39 0h90l-90 -305h76l172 305v238h-248v-238z" />
<glyph unicode="-" horiz-adv-x="808" d="M39 692h731v197h-731v-197z" />
<glyph unicode="." horiz-adv-x="323" d="M39 0h248v238h-248v-238z" />
<glyph unicode="/" horiz-adv-x="1703" d="M20 0h136l1527 1577h-137z" />
<glyph unicode="0" horiz-adv-x="1642" d="M61 788q0 -211 53.5 -366.5t152 -257t238.5 -150.5t316 -49t316.5 49t239 150.5t151.5 257.5t53 366q0 211 -53 367t-151.5 257t-239 150.5t-316.5 49.5t-316 -49.5t-238.5 -150.5t-152 -257t-53.5 -367zM330 788q0 186 33.5 307.5t96 193t153.5 100t208 28.5 q115 0 206 -28.5t154.5 -100t97.5 -192.5t34 -308q0 -184 -34 -306t-97.5 -193.5t-154.5 -100t-206 -28.5q-117 0 -208 28.5t-153.5 100t-96 193.5t-33.5 306z" />
<glyph unicode="1" horiz-adv-x="409" d="M82 0h246v1577h-246v-1577z" />
<glyph unicode="2" horiz-adv-x="1431" d="M61 0h1309v193h-1063v292q0 70 24.5 116t64.5 72.5t93.5 38t112.5 11.5h313q90 0 173 27.5t145.5 82t99.5 134.5t37 182q0 104 -37 184t-99.5 134.5t-145 82t-173.5 27.5h-833v-193h762q119 0 188.5 -53t69.5 -180t-69.5 -180t-188.5 -53h-340q-129 0 -214 -41 t-135.5 -102.5t-72 -132.5t-21.5 -130v-512z" />
<glyph unicode="3" horiz-adv-x="1400" d="M61 0h797q100 0 187.5 29.5t153 85t103 135.5t37.5 178q0 123 -65.5 225.5t-220.5 153.5q143 45 210.5 144.5t67.5 222.5q0 61 -20.5 131.5t-73.5 131t-144.5 100.5t-234.5 40h-797v-193h715q145 0 214 -64.5t69 -174.5q0 -111 -68.5 -175.5t-214.5 -64.5h-547v-188h506 q145 0 234.5 -66.5t89.5 -208.5q0 -47 -17.5 -92t-55.5 -79.5t-100.5 -56t-150.5 -21.5h-674v-193z" />
<glyph unicode="4" horiz-adv-x="1613" d="M41 365h1057v-365h245v365h230v192h-230v1020h-413l-889 -1008v-204zM319 557l779 895v-895h-779z" />
<glyph unicode="5" horiz-adv-x="1466" d="M82 0h829q133 0 226.5 36t153 98.5t87 148.5t27.5 186t-27.5 185t-87 147.5t-153 97.5t-226.5 35h-583v450h983v193h-1229v-836h778q74 0 126 -21.5t85 -58t48.5 -86t15.5 -106.5t-15.5 -107.5t-48.5 -88t-85 -59t-126 -21.5h-778v-193z" />
<glyph unicode="6" horiz-adv-x="1550" d="M61 782q0 -221 57.5 -373.5t162 -247.5t254 -138t335.5 -43q162 0 279 41.5t192.5 113.5t112.5 165t37 196q0 133 -43 221t-117 140t-171 73.5t-206 21.5h-626q8 117 47 200t105.5 134t155.5 74.5t198 23.5h596v193h-676q-184 0 -315.5 -66.5t-215.5 -177t-123 -254 t-39 -297.5zM328 760h524q104 0 177 -17.5t118 -51.5t64.5 -85t19.5 -119q0 -61 -20.5 -117.5t-63.5 -100.5t-111.5 -70.5t-165.5 -26.5q-158 0 -262 47t-166.5 127t-88 186.5t-25.5 227.5z" />
<glyph unicode="7" horiz-adv-x="1388" d="M41 1384h1145l-963 -1384h283l862 1321v256h-1327v-193z" />
<glyph unicode="8" horiz-adv-x="1593" d="M61 434q0 -96 34 -178t118 -142.5t225.5 -95t358.5 -34.5t359 34.5t225 95t117 142.5t36 178q0 74 -19.5 131.5t-55.5 102.5t-84 79.5t-105 63.5q39 20 83 48t78.5 69t58 98t23.5 137q0 113 -50 194t-144 134t-226 78.5t-296 25.5q-162 0 -294 -25.5t-225.5 -78.5 t-144.5 -134t-51 -194q0 -80 22.5 -137t57.5 -98t77 -69t83 -48q-55 -29 -103.5 -63.5t-83.5 -79.5t-54.5 -102.5t-19.5 -131.5zM319 446q0 80 27 135.5t85 89.5t148.5 49t217.5 15t217 -15t148.5 -49t85 -89.5t26.5 -135.5t-28.5 -134t-87 -86.5t-148.5 -47t-213 -14.5 t-213 14.5t-148.5 47t-87.5 87t-29 133.5zM340 1165q0 68 21.5 116t73.5 78t140.5 43t221.5 13t221 -13t140 -43t73.5 -78t21.5 -116q0 -70 -21.5 -117t-73.5 -76.5t-140 -41.5t-221 -12t-221.5 12t-140.5 41.5t-73.5 77t-21.5 116.5z" />
<glyph unicode="9" horiz-adv-x="1531" d="M61 1092q0 -96 27 -177t87.5 -139.5t154.5 -91.5t229 -33h645q0 -221 -117.5 -339.5t-367.5 -118.5h-574v-193h592q147 0 280.5 33t234 118t159.5 232t59 379q0 233 -48 393t-142 258t-233.5 141t-319.5 43q-152 0 -274.5 -30.5t-209.5 -93t-134.5 -157.5t-47.5 -224z M326 1100q0 156 97 230.5t304 74.5q113 0 202 -25.5t150.5 -89t93 -172t31.5 -274.5h-590q-82 0 -137 18.5t-89 52t-48 80.5t-14 105z" />
<glyph unicode=":" horiz-adv-x="401" d="M78 0h246v238h-246v-238zM78 440h246v238h-246v-238z" />
<glyph unicode=";" horiz-adv-x="401" d="M78 0h90l-90 -305h76l170 305v238h-246v-238zM78 440h246v238h-246v-238z" />
<glyph unicode="&#x3c;" horiz-adv-x="505" d="M20 721l424 -367v138l-344 296l344 302v133l-424 -365v-137z" />
<glyph unicode="=" horiz-adv-x="772" d="M20 592h732v135h-732v-135zM20 852h732v133h-732v-133z" />
<glyph unicode="&#x3e;" horiz-adv-x="505" d="M61 354l424 367v137l-424 365v-133l345 -302l-345 -296v-138z" />
<glyph unicode="?" horiz-adv-x="1265" d="M51 0h248v238h-248v-238zM66 381h219v147q0 70 20.5 113t51 64.5t68.5 28.5t73 7h237q129 0 219 32t145.5 88.5t80 132t24.5 165.5t-24.5 167t-80 132t-145.5 87t-219 32h-657v-193h620q123 0 181.5 -57t58.5 -162q0 -104 -58.5 -162.5t-181.5 -58.5h-266 q-104 0 -174 -24.5t-113 -73.5t-61 -124t-18 -175v-166z" />
<glyph unicode="@" horiz-adv-x="1290" d="M61 788q0 -139 38 -259.5t120 -211t213 -142.5t316 -52h286v139h-286q-145 0 -249 41t-170.5 111.5t-98 167t-31.5 206.5q0 156 52 259.5t133 165t178 87t186 25.5q84 0 139 -11t88 -36t46 -62.5t13 -89.5v-26h-221q-117 0 -190.5 -28t-115.5 -72t-58.5 -100t-16.5 -114 q0 -57 19.5 -111t60.5 -95t104.5 -67t149.5 -26h463v639q0 336 -481 336q-66 0 -142 -12t-151.5 -42t-146 -80t-126 -125t-88.5 -177.5t-33 -237.5zM627 786q0 92 49 133.5t147 41.5h211v-336h-203q-106 0 -155 34.5t-49 126.5z" />
<glyph unicode="A" horiz-adv-x="1665" d="M20 0h271l168 416h747l166 -416h273l-650 1577h-325zM528 600l303 743l302 -743h-605z" />
<glyph unicode="B" horiz-adv-x="1474" d="M82 0h774q254 0 396.5 104.5t142.5 333.5q0 82 -21.5 142.5t-57.5 104.5t-83 72.5t-98 51.5q55 27 98 59.5t71.5 75.5t43 99.5t14.5 130.5q0 88 -31 161.5t-90 128t-148 84t-206 29.5h-805v-1577zM328 193v520h567q72 0 118 -24.5t73.5 -63.5t38 -84t10.5 -88 t-10.5 -88.5t-38 -84t-73.5 -63t-118 -24.5h-567zM328 907v477h516q80 0 132 -17t83 -49t43 -76t12 -97t-12 -97t-43 -75t-83 -48.5t-132 -17.5h-516z" />
<glyph unicode="C" horiz-adv-x="1400" d="M61 788q0 -80 12.5 -169t40 -177t76 -167.5t120 -141t170 -97.5t227.5 -36h616v193h-520q-137 0 -228.5 46t-145.5 125.5t-76.5 188.5t-22.5 235q0 127 22.5 236t77.5 188.5t146.5 125.5t228.5 46h518v193h-616q-129 0 -227.5 -36t-170 -97.5t-120 -141t-76 -166.5 t-40 -177.5t-12.5 -170.5z" />
<glyph unicode="D" horiz-adv-x="1540" d="M82 0h737q150 0 271.5 48t208.5 145.5t134.5 246t47.5 348.5q0 201 -47.5 349.5t-134.5 246t-208.5 145.5t-271.5 48h-737v-1577zM328 193v1191h450q35 0 80 -5t93 -23.5t95.5 -56t83 -104.5t58 -166t22.5 -241q0 -141 -22.5 -240t-58 -166t-83 -104.5t-95.5 -56 t-93 -23.5t-80 -5h-450z" />
<glyph unicode="E" horiz-adv-x="1343" d="M61 788q0 -211 58.5 -360t158 -244.5t229.5 -139.5t273 -44h504v193h-469q-125 0 -212 38.5t-142 107.5t-83 163t-34 205h916v192h-914q8 106 37 195.5t85 154t141 100t208 35.5h467v193h-504q-143 0 -273 -43t-229.5 -138.5t-158 -245t-58.5 -362.5z" />
<glyph unicode="F" horiz-adv-x="1306" d="M82 0h246v707h893v192h-893v135q0 90 30.5 156.5t80.5 109.5t113.5 63.5t129.5 20.5h563v193h-532q-184 0 -305 -48t-194 -124t-102.5 -169t-29.5 -185v-1051z" />
<glyph unicode="G" horiz-adv-x="1466" d="M61 788q0 -80 12.5 -169t40 -177t76 -167.5t120 -141t170 -97.5t227.5 -36h698v899h-729v-192h481v-514h-354q-137 0 -228.5 46t-145.5 125.5t-76.5 188.5t-22.5 235q0 127 22.5 236t77.5 188.5t146.5 125.5t228.5 46h600v193h-698q-129 0 -227.5 -36t-170 -97.5 t-120 -141t-76 -166.5t-40 -177.5t-12.5 -170.5z" />
<glyph unicode="H" horiz-adv-x="1501" d="M82 0h246v707h843v-707h248v1577h-248v-676h-843v676h-246v-1577z" />
<glyph unicode="I" horiz-adv-x="409" d="M82 0h246v1577h-246v-1577z" />
<glyph unicode="J" horiz-adv-x="1093" d="M41 0h491q66 0 130.5 20.5t136.5 65.5q63 39 104 89t65.5 108.5t34 124t9.5 135.5v1034h-248v-1092q0 -92 -32 -149t-81 -89t-107.5 -43t-111.5 -11h-391v-193z" />
<glyph unicode="K" horiz-adv-x="1462" d="M82 0h246v752h20l739 -752h355l-811 819l770 758h-305l-768 -739v739h-246v-1577z" />
<glyph unicode="L" horiz-adv-x="1093" d="M82 543q0 -70 9 -135.5t34 -124t65.5 -108.5t104.5 -89q72 -45 135.5 -65.5t128.5 -20.5h494v193h-391q-55 0 -114 11t-108 43t-80.5 89t-31.5 149v1092h-246v-1034z" />
<glyph unicode="M" horiz-adv-x="1902" d="M82 0h246v1307l506 -1307h253l484 1305v-1305h250v1577h-369l-483 -1288l-482 1288h-405v-1577z" />
<glyph unicode="N" horiz-adv-x="1515" d="M82 0h246v1241l833 -1241h273v1577h-248v-1247l-807 1247h-297v-1577z" />
<glyph unicode="O" horiz-adv-x="1642" d="M61 788q0 -211 53.5 -366.5t152 -257t238.5 -150.5t316 -49t316.5 49t239 150.5t151.5 257.5t53 366q0 211 -53 367t-151.5 257t-239 150.5t-316.5 49.5t-316 -49.5t-238.5 -150.5t-152 -257t-53.5 -367zM330 788q0 186 33.5 307.5t96 193t153.5 100t208 28.5 q115 0 206 -28.5t154.5 -100t97.5 -192.5t34 -308q0 -184 -34 -306t-97.5 -193.5t-154.5 -100t-206 -28.5q-117 0 -208 28.5t-153.5 100t-96 193.5t-33.5 306z" />
<glyph unicode="P" horiz-adv-x="1411" d="M82 0h246v563h497q109 0 205 30t167 91t112 157.5t41 229.5t-41 228.5t-112 157t-167 91t-205 29.5h-743v-1577zM328 756v628h467q139 0 212.5 -68.5t73.5 -244.5t-73.5 -245.5t-212.5 -69.5h-467z" />
<glyph unicode="Q" horiz-adv-x="1681" d="M61 807q0 -213 53.5 -365.5t152 -251t238.5 -144.5t316 -46h799v195h-240q201 197 201 612q0 211 -53 363.5t-151.5 251t-239 144.5t-316.5 46t-316 -46t-238.5 -144.5t-152 -251t-53.5 -363.5zM330 807q0 184 33.5 303t96 187.5t153.5 94t208 25.5t208 -25.5t153.5 -94 t96.5 -187.5t34 -303q0 -186 -34 -305t-96.5 -187.5t-153.5 -94t-208 -25.5t-208 25.5t-153.5 94t-96 187.5t-33.5 305z" />
<glyph unicode="R" horiz-adv-x="1490" d="M82 0h246v666h381q160 0 252 -69t126 -194q8 -33 14.5 -76.5t11.5 -96t12.5 -111t21.5 -119.5h262q-27 154 -41 274.5t-37 184.5q-41 98 -102.5 157.5t-151.5 100.5q158 39 246 145.5t88 259.5q0 119 -38 205t-104.5 141.5t-157.5 82t-200 26.5h-829v-1577zM328 858v526 h536q49 0 99.5 -9t90.5 -37.5t65.5 -80t25.5 -135.5t-25.5 -136t-65.5 -80.5t-90.5 -38t-99.5 -9.5h-536z" />
<glyph unicode="S" horiz-adv-x="1466" d="M61 1126q0 -115 39 -194.5t104.5 -131.5t151.5 -76t179 -24h309q137 0 210.5 -61t78.5 -190v-6q0 -125 -75 -187q-77 -64 -214 -63h-729v-193h739q264 0 398 113.5t134 343.5q0 229 -134 341.5t-398 112.5h-258q-55 0 -105.5 11.5t-90.5 39t-63.5 72.5t-23.5 113 t23.5 113t63.5 72.5t90.5 39.5t105.5 12h709v193h-770q-92 0 -178.5 -27.5t-152 -83t-104.5 -140.5t-39 -200z" />
<glyph unicode="T" horiz-adv-x="1310" d="M41 1384h489v-1384h248v1384h492v193h-1229v-193z" />
<glyph unicode="U" horiz-adv-x="1509" d="M82 549q0 -299 170 -441.5t502 -142.5t502.5 142.5t170.5 441.5v1028h-247v-1036q0 -84 -26 -154t-78 -121t-133 -79.5t-189 -28.5q-109 0 -189 28.5t-133 79.5t-78.5 121t-25.5 154v1036h-246v-1028z" />
<glyph unicode="V" horiz-adv-x="1673" d="M20 1577l658 -1577h305l670 1577h-262l-560 -1339l-522 1339h-289z" />
<glyph unicode="W" horiz-adv-x="2121" d="M41 1577l381 -1577h311l328 1278l287 -1278h335l398 1577h-254l-295 -1280l-313 1280h-316l-313 -1272l-287 1272h-262z" />
<glyph unicode="X" horiz-adv-x="1615" d="M41 0h281l477 639l469 -639h307l-625 840l555 737h-291l-407 -545l-406 545h-295l551 -748z" />
<glyph unicode="Y" horiz-adv-x="1542" d="M20 1577l623 -942v-635h248v635l633 942h-283l-469 -729l-465 729h-287z" />
<glyph unicode="Z" horiz-adv-x="1474" d="M82 0h1313v193h-1037l1037 1087v297h-1301v-193h1071l-1083 -1136v-248z" />
<glyph unicode="[" horiz-adv-x="432" d="M82 -170h270v135h-135v1647h135v135h-270v-1917z" />
<glyph unicode="\" horiz-adv-x="1703" d="M20 1577l1526 -1577h137l-1527 1577h-136z" />
<glyph unicode="]" horiz-adv-x="413" d="M61 -35v-135h271v1917h-271v-135h136v-1647h-136z" />
<glyph unicode="^" horiz-adv-x="512" d="M39 1366h119l98 113l96 -113h54h67l-182 211h-70z" />
<glyph unicode="_" horiz-adv-x="907" d="M0 -170v-170h1014v170h-1014z" />
<glyph unicode="`" horiz-adv-x="415" d="M39 1577l225 -225h113l-225 225h-113z" />
<glyph unicode="a" horiz-adv-x="1189" d="M51 334q0 -166 97.5 -250t271.5 -84h690v780q0 100 -33 164t-80 100.5t-100 50t-94 13.5h-709v-172h631q176 0 176 -231v-33h-481q-174 0 -271.5 -86t-97.5 -252zM283 334q0 86 46 127t150 41h422v-332h-416q-109 0 -155.5 40t-46.5 124z" />
<glyph unicode="b" horiz-adv-x="1191" d="M102 0h566q119 0 208 45t147 122t88 177t30 209q0 111 -30 211t-88 177t-147 122t-208 45h-359v424h-207v-1532zM309 170v766h293q90 0 150.5 -33t97.5 -87t52.5 -122.5t15.5 -140.5t-15.5 -141.5t-52.5 -122.5t-97.5 -86t-150.5 -33h-293z" />
<glyph unicode="c" horiz-adv-x="1034" d="M51 553q0 -109 30 -209t88 -177t147.5 -122t207.5 -45h459v170h-393q-90 0 -150.5 33t-96.5 86t-51.5 122.5t-15.5 141.5t15.5 140.5t51.5 122.5t96.5 87t150.5 33h393v172h-459q-119 0 -208 -45t-147 -122t-88 -177t-30 -211z" />
<glyph unicode="d" horiz-adv-x="1191" d="M51 553q0 -109 30 -209t88 -177t147.5 -122t207.5 -45h568v1532h-209v-424h-359q-119 0 -208 -45t-147 -122t-88 -177t-30 -211zM276 553q0 72 15.5 140.5t51.5 122.5t96.5 87t150.5 33h293v-766h-293q-90 0 -150.5 33t-96.5 86t-51.5 122.5t-15.5 141.5z" />
<glyph unicode="e" horiz-adv-x="1034" d="M51 553q0 -109 30 -209t88 -177t147.5 -122t207.5 -45h459v170h-393q-78 0 -133.5 24.5t-92 67.5t-57 99.5t-26.5 117.5h677v168h-675q8 57 28.5 110.5t57.5 92.5t91 62.5t130 23.5h393v172h-459q-119 0 -208 -45t-147 -122t-88 -177t-30 -211z" />
<glyph unicode="f" horiz-adv-x="886" d="M51 936h205v-936h209v936h358v172h-358v72q0 55 14.5 90t39 54t56 27.5t66.5 8.5h195v172h-246q-92 0 -155.5 -26.5t-103.5 -74t-57.5 -112t-17.5 -137.5v-74h-205v-172z" />
<glyph unicode="g" horiz-adv-x="1191" d="M51 553q0 -109 30 -209t88 -177t147 -122t208 -45h379v-59q0 -59 -42 -85t-109 -26h-576v-170h643q98 0 156.5 29.5t88.5 75t39 97.5t9 97v1149h-588q-119 0 -208 -45t-147 -122t-88 -177t-30 -211zM276 553q0 72 15.5 140.5t51.5 122.5t96.5 87t150.5 33h313v-766h-313 q-90 0 -150.5 33t-96.5 86t-51.5 122.5t-15.5 141.5z" />
<glyph unicode="h" horiz-adv-x="1167" d="M102 0h207v936h336q74 0 119 -22.5t70.5 -57.5t35 -79t9.5 -87v-690h208v709q0 203 -108.5 301t-308.5 98h-361v424h-207v-1532z" />
<glyph unicode="i" horiz-adv-x="411" d="M102 0h207v1108h-207v-1108zM102 1309h207v223h-207v-223z" />
<glyph unicode="j" horiz-adv-x="430" d="M-195 -170v-170h232q61 0 113.5 15.5t92.5 50t62.5 91t22.5 138.5v1153h-209v-1161q0 -55 -26.5 -86t-90.5 -31h-197zM119 1309h209v223h-209v-223z" />
<glyph unicode="k" horiz-adv-x="1196" d="M102 0h207v498h379q63 0 103 -19.5t61.5 -51.5t30 -70t8.5 -74v-283h209v289q0 74 -14.5 142.5t-52.5 120.5t-103.5 84t-167.5 32h-180l563 440h-281l-555 -440v864h-207v-1532z" />
<glyph unicode="l" horiz-adv-x="411" d="M102 0h207v1532h-207v-1532z" />
<glyph unicode="m" horiz-adv-x="1693" d="M102 0h207v936h443v-936h209v936h208q74 0 119 -22.5t70.5 -57.5t35 -79t9.5 -87v-690h209v737q0 188 -100.5 279.5t-290.5 91.5h-1119v-1108z" />
<glyph unicode="n" horiz-adv-x="1153" d="M102 0h207v936h322q74 0 119 -22.5t70.5 -57.5t34.5 -79t9 -87v-690h209v737q0 188 -101.5 279.5t-289.5 91.5h-580v-1108z" />
<glyph unicode="o" d="M51 553q0 -127 27.5 -233.5t93.5 -184.5t177.5 -121t281.5 -43q168 0 280.5 43t178 121t93 184.5t27.5 233.5t-27.5 234.5t-93 184.5t-178 120t-280.5 43q-170 0 -281.5 -43t-177.5 -120t-93.5 -184.5t-27.5 -234.5zM276 553q0 86 15.5 160.5t55.5 130t108.5 88.5 t175.5 33q106 0 174.5 -33t108.5 -88.5t55.5 -130t15.5 -160.5t-15.5 -161t-55.5 -130t-108.5 -88t-174.5 -33t-175 33t-109 88t-55.5 130t-15.5 161z" />
<glyph unicode="p" horiz-adv-x="1191" d="M102 -340h207v340h359q119 0 208 45t147 122t88 177t30 209q0 111 -30 211t-88 177t-147.5 122t-207.5 45h-566v-1448zM309 170v766h293q90 0 150.5 -33t97.5 -87t52.5 -122.5t15.5 -140.5t-15.5 -141.5t-52.5 -122.5t-97.5 -86t-150.5 -33h-293z" />
<glyph unicode="q" horiz-adv-x="1191" d="M51 553q0 -109 30 -209t88 -177t147 -122t208 -45h359v-340h209v1448h-568q-119 0 -208 -45t-147 -122t-88 -177t-30 -211zM276 553q0 72 15.5 140.5t51.5 122.5t96.5 87t150.5 33h293v-766h-293q-90 0 -150.5 33t-96.5 86t-51.5 122.5t-15.5 141.5z" />
<glyph unicode="r" horiz-adv-x="903" d="M102 0h207v936h152q111 0 146.5 -51t35.5 -131v-129h209v163q0 96 -34 158t-83 97.5t-106.5 50t-104.5 14.5h-422v-1108z" />
<glyph unicode="s" horiz-adv-x="1200" d="M82 0h733q137 0 221 84t84 238q0 156 -84 240.5t-221 84.5h-338q-14 0 -40.5 4t-53.5 18.5t-46.5 43t-19.5 78.5q0 51 19.5 79.5t46.5 43t53.5 18.5t40.5 4h574v172h-609q-102 0 -170.5 -27.5t-110.5 -72.5t-60.5 -103.5t-18.5 -122.5q0 -63 18.5 -121.5t60.5 -103.5 t110.5 -71.5t170.5 -26.5h269q14 0 43.5 -3t60.5 -17.5t53.5 -44t22.5 -81.5q0 -51 -22.5 -79.5t-53.5 -43t-60.5 -17.5t-43.5 -3h-629v-170z" />
<glyph unicode="t" horiz-adv-x="858" d="M51 936h217v-705q0 -55 18.5 -98t48.5 -72.5t65.5 -45t72.5 -15.5h334v170h-223q-47 0 -77 30.5t-30 78.5v657h330v172h-330v424h-209v-424h-217v-172z" />
<glyph unicode="u" horiz-adv-x="1153" d="M82 369q0 -188 100.5 -278.5t290.5 -90.5h580v1108h-209v-938h-322q-74 0 -119 22.5t-69.5 58.5t-33.5 80t-9 87v690h-209v-739z" />
<glyph unicode="v" d="M27 1108l487 -1108h186l535 1108h-244l-373 -823l-352 823h-239z" />
<glyph unicode="w" horiz-adv-x="1693" d="M82 369q0 -188 100.5 -278.5t290.5 -90.5h1118v1108h-209v-938h-442v938h-209v-938h-209q-74 0 -119 22.5t-69.5 58.5t-33.5 80t-9 87v690h-209v-739z" />
<glyph unicode="x" horiz-adv-x="1271" d="M51 0h256l322 391l315 -391h277l-455 557l455 551h-260l-322 -393l-322 393h-262l449 -559z" />
<glyph unicode="y" horiz-adv-x="1169" d="M102 346q0 -63 18.5 -125.5t59.5 -112t108.5 -79t166.5 -29.5h405v-59q0 -59 -42 -85t-107 -26h-578v-170h643q98 0 156.5 29.5t88.5 75t39 97.5t9 97v1149h-209v-938h-352q-27 0 -60.5 9t-64.5 30.5t-52.5 56.5t-21.5 88v754h-207v-762z" />
<glyph unicode="z" horiz-adv-x="1056" d="M51 0h955v170h-721l721 688v250h-955v-172h744l-744 -709v-227z" />
<glyph unicode="{" horiz-adv-x="696" d="M80 692h65q57 0 97.5 -40t40.5 -97v-524q0 -86 57 -143.5t141 -57.5h135v199h-69q-27 0 -46.5 19.5t-19.5 47.5v557q0 55 -40 94t-97 41q57 2 97 41t40 95v559q0 29 19.5 47t46.5 18h69v199h-135q-84 0 -141 -57.5t-57 -143.5v-522q0 -57 -40 -96t-98 -39h-65v-197z" />
<glyph unicode="|" horiz-adv-x="360" d="M82 -102h199v1781h-199v-1781z" />
<glyph unicode="}" horiz-adv-x="696" d="M80 29v-199h135q41 0 77 15.5t63.5 43t43 63.5t15.5 79v524q0 57 40 97t95 40h67v197h-67q-55 0 -95 39t-40 96v522q0 43 -15.5 79t-43 63.5t-63.5 43t-77 15.5h-135v-199h67q29 0 48.5 -18.5t19.5 -46.5v-559q0 -55 40 -94.5t95 -41.5q-55 -2 -95 -40.5t-40 -94.5v-557 q0 -29 -19.5 -48t-48.5 -19h-67z" />
<glyph unicode="~" horiz-adv-x="641" d="M39 621h84v159q0 33 22.5 55.5t55.5 22.5t55.5 -22.5t22.5 -55.5v-43q0 -66 47 -114t114 -48q66 0 114 48.5t48 113.5v203h-86v-160q0 -33 -21.5 -54t-54.5 -21t-55.5 21.5t-22.5 53.5v43q0 66 -47 114t-114 48q-68 0 -115 -48t-47 -114v-202z" />
<glyph unicode="&#xa1;" horiz-adv-x="405" d="M82 0h242v1204h-242v-1204zM82 1339h242v238h-242v-238z" />
<glyph unicode="&#xa2;" horiz-adv-x="860" d="M51 1130q0 -86 23.5 -166.5t72 -143t121 -100.5t168.5 -38h64v-111h82v111h227v135h-227v625h227v135h-227v113h-82v-113h-64q-96 0 -168.5 -37t-121 -98.5t-72 -142t-23.5 -169.5zM225 1130q0 57 12.5 112.5t42 99.5t79 72t122.5 28h19v-625h-19q-74 0 -123 26.5 t-78.5 70.5t-42 100.5t-12.5 115.5z" />
<glyph unicode="&#xa3;" horiz-adv-x="1140" d="M61 0h1020v193h-762q53 2 91.5 37.5t38.5 88.5v429h124v192h-124v250q0 82 56 138t138 56h244v193h-244q-80 0 -150.5 -30.5t-123 -83t-83 -123t-30.5 -150.5v-250h-129v-192h129v-361q0 -41 -15.5 -76t-42 -61.5t-62.5 -41.5t-75 -15v-193z" />
<glyph unicode="&#xa4;" horiz-adv-x="708" d="M51 1004l86 -86q-35 -57 -35 -130q0 -68 35 -126l-84 -87l86 -86l86 84q61 -39 131 -38q70 0 129 34l82 -82l88 86l-82 84q16 29 26.5 62t10.5 69q0 74 -37 134l84 84l-88 88l-84 -86q-57 35 -129 34q-37 0 -69.5 -10t-61.5 -26l-88 86zM229 788q0 53 37 91.5t90 38.5 t92 -38.5t39 -91.5t-38.5 -89.5t-92.5 -36.5q-53 0 -90 36.5t-37 89.5z" />
<glyph unicode="&#xa5;" horiz-adv-x="1542" d="M20 1577l484 -731h-164v-115h238l65 -96v-57h-303v-113h303v-465h248v465h311v113h-311v57l67 96h244v115h-170l492 731h-283l-469 -729l-465 729h-287z" />
<glyph unicode="&#xa6;" horiz-adv-x="360" d="M82 -102h199v833h-199v-833zM82 846h199v833h-199v-833z" />
<glyph unicode="&#xa7;" horiz-adv-x="935" d="M80 866q0 -43 10 -73.5t23.5 -52t28 -34t24.5 -18.5l409 -239q35 -20 46.5 -40t11.5 -51q0 -35 -13.5 -53t-31 -28.5t-34.5 -12.5t-28 -2h-381v-115h406q68 0 113 18.5t73.5 48.5t41 69t12.5 82q0 39 -8.5 66.5t-17.5 46t-18.5 27.5t-11.5 11q49 23 86 67t37 130 q0 43 -10 73.5t-24.5 52t-30 34t-23.5 18.5l-410 239q-35 20 -45 40t-10 51q0 33 12.5 52t30 29.5t34.5 12.5t28 2h381v113h-406q-68 0 -113 -17.5t-73.5 -47.5t-41 -69t-12.5 -82q0 -78 25 -112.5t31 -38.5q-49 -23 -85 -67t-36 -130zM238 872q0 47 27.5 71t60.5 24 q25 0 47 -13l270 -159q37 -23 47 -41.5t10 -46.5q0 -49 -27.5 -72t-60.5 -23q-29 1 -49 13l-268 157q-37 23 -47 41.5t-10 48.5z" />
<glyph unicode="&#xa8;" horiz-adv-x="649" d="M39 1339h248v238h-248v-238zM362 1339h248v238h-248v-238z" />
<glyph unicode="&#xa9;" horiz-adv-x="1699" d="M61 788q0 -164 61.5 -307t169 -250.5t251 -169t307.5 -61.5t307 61.5t251 169t169 251t61 306.5q0 164 -61 307.5t-169 251t-251 169t-307 61.5t-307.5 -61.5t-251 -169t-169 -251t-61.5 -307.5zM172 788q0 139 53.5 263.5t145.5 216.5t216 145t263 53t263 -53t216 -145 t145.5 -216t53.5 -264q0 -139 -53.5 -263t-145.5 -216t-216 -145t-263 -53t-263 53t-216 145t-145.5 216t-53.5 263zM465 788q0 -59 14.5 -128.5t50 -128t98 -97.5t160.5 -39h310v97h-260q-68 0 -114 22.5t-73.5 62t-39 94t-11.5 117.5t11.5 119t39 95.5t73.5 62t114 22.5 h260v95h-310q-98 0 -160.5 -39t-98 -97.5t-50 -128t-14.5 -129.5z" />
<glyph unicode="&#xaa;" horiz-adv-x="661" d="M51 385h529v84h-529v-84zM51 719q0 -82 49.5 -124t135.5 -42h344v389q0 51 -16.5 83t-40 50.5t-50.5 25.5t-47 7h-352v-86h315q86 0 86 -115v-16h-239q-86 0 -135.5 -43t-49.5 -129zM166 719q0 86 98 86h211v-166h-207q-102 0 -102 80z" />
<glyph unicode="&#xab;" horiz-adv-x="544" d="M20 756l213 -185v68l-172 149l172 150v68l-213 -183v-67zM272 756l213 -185v68l-174 149l174 150v68l-213 -183v-67z" />
<glyph unicode="&#xac;" horiz-adv-x="833" d="M51 692h535v-196h196v393h-731v-197z" />
<glyph unicode="&#xad;" horiz-adv-x="808" d="M39 692h731v197h-731v-197z" />
<glyph unicode="&#xae;" horiz-adv-x="1224" d="M61 1026q0 -115 43 -215t118 -175t175.5 -118t214.5 -43q115 0 215.5 43t175 118t117.5 175t43 215t-43 215t-117.5 175t-175 118t-215.5 43t-215 -43t-175 -118t-118 -175t-43 -215zM184 1026q0 88 34 167t91.5 136t135 91t167.5 34q88 0 167 -34t136.5 -91t91 -136 t33.5 -167q0 -90 -33.5 -168t-91 -135t-136.5 -91t-167 -34q-90 0 -167.5 34t-135 91t-91.5 135t-34 168zM403 764h82v223h125q53 0 83 -22.5t40 -63.5q6 -23 8 -58.5t13 -78.5h88q-10 53 -14.5 93t-12.5 63q-14 31 -34.5 50t-49.5 34q53 12 82 47.5t29 85.5q0 80 -46 115.5 t-118 35.5h-275v-524zM485 1051v174h177q35 0 63.5 -15.5t28.5 -72.5q0 -55 -29 -70.5t-63 -15.5h-177z" />
<glyph unicode="&#xaf;" horiz-adv-x="358" d="M39 1464h280v113h-280v-113z" />
<glyph unicode="&#xb0;" horiz-adv-x="583" d="M39 1325q0 -53 19.5 -99t54 -81t81 -54.5t99.5 -19.5q51 0 97 19.5t81 54.5t54.5 81t19.5 99q0 51 -19.5 97t-54.5 81t-81 54.5t-97 19.5q-53 0 -99.5 -19.5t-81 -54.5t-54 -81t-19.5 -97zM164 1325q0 53 38 90t91 37t91 -37t38 -90t-38 -91t-91 -38t-91 38t-38 91z" />
<glyph unicode="&#xb1;" horiz-adv-x="808" d="M39 225h731v197h-731v-197zM39 887h268v-269h197v269h266v196h-266v267h-197v-267h-268v-196z" />
<glyph unicode="&#xb2;" horiz-adv-x="888" d="M51 631h787v114h-639v177q0 84 53 113.5t123 29.5h188q55 0 105.5 16.5t87.5 49t59.5 81t22.5 109.5t-22.5 109.5t-59.5 81t-87.5 49t-105.5 16.5h-500v-115h457q72 0 114 -32.5t42 -106.5q0 -78 -42 -110.5t-114 -32.5h-205q-78 0 -128 -25t-80.5 -60.5t-43 -78.5 t-12.5 -80v-305z" />
<glyph unicode="&#xb3;" horiz-adv-x="870" d="M51 631h477q59 0 112.5 17.5t93.5 51t62.5 81.5t22.5 108q0 72 -40 134t-134 93q86 25 127 86.5t41 132.5q0 37 -12.5 79t-44 79t-87 60.5t-141.5 23.5h-477v-115h430q86 0 127 -39t41 -104q0 -66 -41 -105.5t-127 -39.5h-329v-111h305q86 0 139 -40t53 -126 q0 -29 -10 -55.5t-32.5 -48t-59.5 -35t-90 -13.5h-406v-114z" />
<glyph unicode="&#xb4;" horiz-adv-x="415" d="M39 1352h113l225 225h-113z" />
<glyph unicode="&#xb5;" horiz-adv-x="1370" d="M51 -324h62q59 80 114.5 180.5t91.5 204.5q98 -61 252 -61h379q10 -72 34 -127t75 -111h211q-43 47 -66.5 93.5t-36 101.5t-14.5 123t-2 158v870h-209v-938h-319q-74 0 -119 22.5t-70.5 58.5t-35 80t-9.5 87v690h-209v-739q0 -111 -4 -200t-17.5 -169t-39 -158 t-68.5 -166z" />
<glyph unicode="&#xb6;" horiz-adv-x="1536" d="M61 1071q0 -133 41 -229.5t113 -157.5t167 -91t204 -30h495v-563h125v1384h125v-1384h125v1577h-870q-109 0 -204 -29.5t-167 -91t-113 -157t-41 -228.5z" />
<glyph unicode="&#xb7;" horiz-adv-x="323" d="M39 674h248v237h-248v-237z" />
<glyph unicode="&#xb9;" horiz-adv-x="280" d="M51 631h148v946h-148v-946z" />
<glyph unicode="&#xba;" horiz-adv-x="681" d="M51 831q0 -63 13.5 -117.5t46 -93t89 -60t140.5 -21.5t140.5 21.5t90 60t47 93t13.5 117.5t-13.5 118t-47 93.5t-90 60t-140.5 21.5t-140.5 -21.5t-89 -60t-46 -93t-13.5 -118.5zM66 385h550v84h-550v-84zM164 829q0 43 8 80t27.5 66t53.5 45t87 16t87 -16t54.5 -44 t27.5 -65t7 -80t-7 -80.5t-27.5 -65.5t-54.5 -44t-87 -16t-87 16t-53.5 44t-27.5 64.5t-8 79.5z" />
<glyph unicode="&#xbb;" horiz-adv-x="544" d="M61 571l213 185v67l-213 183v-68l172 -150l-172 -149v-68zM311 571l213 185v67l-213 183v-68l174 -150l-174 -149v-68z" />
<glyph unicode="&#xbc;" horiz-adv-x="1562" d="M51 0h150l870 1577h-149zM51 631h148v946h-148v-946zM592 219h635v-219h147v219h139v115h-139v612h-248l-534 -604v-123zM760 334l467 538v-538h-467z" />
<glyph unicode="&#xbd;" horiz-adv-x="1724" d="M51 0h150l870 1577h-149zM51 631h148v946h-148v-946zM858 0h787v115h-637v176q0 84 52 113.5t124 29.5h186q55 0 105.5 16.5t87 49t59.5 81t23 109.5t-23 109.5t-59.5 81t-87 49t-105.5 16.5h-500v-115h459q72 0 113 -32.5t41 -106.5q0 -78 -41 -110.5t-113 -32.5h-205 q-78 0 -129 -24.5t-81.5 -60.5t-43 -78t-12.5 -79v-307z" />
<glyph unicode="&#xbe;" horiz-adv-x="2054" d="M51 631h477q59 0 112.5 17.5t93.5 51t62.5 81.5t22.5 108q0 72 -40 134t-134 93q86 25 127 86.5t41 132.5q0 37 -12.5 79t-44 79t-87 60.5t-141.5 23.5h-477v-115h430q86 0 127 -39t41 -104q0 -66 -41 -105.5t-127 -39.5h-329v-111h305q86 0 139 -40t53 -126 q0 -29 -10 -55.5t-32.5 -48t-59.5 -35t-90 -13.5h-406v-114zM541 0h151l869 1577h-150zM1083 219h635v-219h148v219h137v115h-137v612h-248l-535 -604v-123zM1251 334l467 538v-538h-467z" />
<glyph unicode="&#xbf;" horiz-adv-x="1275" d="M61 418q0 -90 25 -167t80 -132.5t144 -87t218 -31.5h660v193h-621q-123 0 -182 58t-59 161q0 104 59 162.5t182 58.5h269q104 0 173.5 24.5t112.5 73.5t61.5 124t18.5 175v166h-219v-147q0 -72 -20.5 -114t-51 -63.5t-68.5 -28.5t-73 -7h-242q-129 0 -218 -32t-144 -87 t-80 -132t-25 -167zM971 1339h243v238h-243v-238z" />
<glyph unicode="&#xc0;" horiz-adv-x="1665" d="M20 0h271l168 416h747l166 -416h273l-650 1577h-325zM528 600l303 743l302 -743h-605zM547 1933l225 -225h115l-225 225h-115z" />
<glyph unicode="&#xc1;" horiz-adv-x="1665" d="M20 0h271l168 416h747l166 -416h273l-650 1577h-325zM528 600l303 743l302 -743h-605zM772 1708h115l225 225h-115z" />
<glyph unicode="&#xc2;" horiz-adv-x="1665" d="M20 0h271l168 416h747l166 -416h273l-650 1577h-325zM528 600l303 743l302 -743h-605zM610 1708h119l98 111l97 -111h53h67l-182 211h-69z" />
<glyph unicode="&#xc3;" horiz-adv-x="1665" d="M20 0h271l168 416h747l166 -416h273l-650 1577h-325zM528 600l303 743l302 -743h-605zM547 1708h86v160q0 33 22.5 55.5t55.5 22.5q31 0 53 -22.5t22 -55.5v-43q0 -66 48.5 -114t113.5 -48q68 0 116 48t48 114v203h-86v-160q0 -33 -22.5 -55.5t-55.5 -22.5 q-31 0 -53.5 22.5t-22.5 55.5v43q0 33 -13 61.5t-34.5 51t-51.5 36t-62 13.5q-35 0 -65 -13.5t-51.5 -36t-34.5 -51t-13 -61.5v-203z" />
<glyph unicode="&#xc4;" horiz-adv-x="1665" d="M20 0h271l168 416h747l166 -416h273l-650 1577h-325zM528 600l303 743l302 -743h-605zM545 1708h248v238h-248v-238zM870 1708h248v238h-248v-238z" />
<glyph unicode="&#xc5;" horiz-adv-x="1665" d="M20 0h271l168 416h747l166 -416h273l-650 1577h-325zM528 600l303 743l302 -743h-605zM578 1952q0 -53 20 -98.5t54 -80t80 -54t99 -19.5q51 0 98.5 19.5t81 54t54 79.5t20.5 99q0 53 -20.5 99t-54 81t-81 54.5t-98.5 19.5q-53 0 -99 -19.5t-80 -54.5t-54 -81t-20 -99z M705 1952q0 53 36.5 91t89.5 38t91.5 -38t38.5 -91t-38 -90t-92 -37q-53 0 -89.5 36.5t-36.5 90.5z" />
<glyph unicode="&#xc6;" horiz-adv-x="2394" d="M20 0h295l273 416h604v-416h1143v193h-469q-125 0 -212 38.5t-142.5 107.5t-83 163t-33.5 205h915v192h-913q8 106 36.5 195.5t84 154t141.5 100t209 35.5h467v193h-1266zM709 600l483 743v-743h-483z" />
<glyph unicode="&#xc7;" horiz-adv-x="1400" d="M61 821q-2 -158 32 -306t112 -263t201.5 -183.5t300.5 -68.5h178v-72q0 -16 -3 -28.5t-14 -22.5q-12 -12 -25.5 -14t-29.5 -2h-72v-144h72q49 0 87 8.5t73 43t43 73.5t8 86v72h299v195h-520q-147 0 -240.5 54t-145.5 142t-70.5 201t-14.5 229q2 106 25.5 207.5 t76.5 180.5t143.5 127t227.5 48h518v193h-616q-129 0 -227.5 -36t-170 -95.5t-119 -136t-76 -160.5t-40 -169t-13.5 -159z" />
<glyph unicode="&#xc8;" horiz-adv-x="1343" d="M61 788q0 -211 58.5 -360t158 -244.5t229.5 -139.5t273 -44h504v193h-469q-125 0 -212 38.5t-142 107.5t-83 163t-34 205h916v192h-914q8 106 37 195.5t85 154t141 100t208 35.5h467v193h-504q-143 0 -273 -43t-229.5 -138.5t-158 -245t-58.5 -362.5zM766 1933l225 -225 h115l-225 225h-115z" />
<glyph unicode="&#xc9;" horiz-adv-x="1343" d="M61 788q0 -211 58.5 -360t158 -244.5t229.5 -139.5t273 -44h504v193h-469q-125 0 -212 38.5t-142 107.5t-83 163t-34 205h916v192h-914q8 106 37 195.5t85 154t141 100t208 35.5h467v193h-504q-143 0 -273 -43t-229.5 -138.5t-158 -245t-58.5 -362.5zM799 1708h114 l224 225h-113z" />
<glyph unicode="&#xca;" horiz-adv-x="1343" d="M61 788q0 -211 58.5 -360t158 -244.5t229.5 -139.5t273 -44h504v193h-469q-125 0 -212 38.5t-142 107.5t-83 163t-34 205h916v192h-914q8 106 37 195.5t85 154t141 100t208 35.5h467v193h-504q-143 0 -273 -43t-229.5 -138.5t-158 -245t-58.5 -362.5zM729 1708h121 l96 111l98 -111h54h65l-182 211h-68z" />
<glyph unicode="&#xcb;" horiz-adv-x="1343" d="M61 788q0 -211 58.5 -360t158 -244.5t229.5 -139.5t273 -44h504v193h-469q-125 0 -212 38.5t-142 107.5t-83 163t-34 205h916v192h-914q8 106 37 195.5t85 154t141 100t208 35.5h467v193h-504q-143 0 -273 -43t-229.5 -138.5t-158 -245t-58.5 -362.5zM618 1708h248v238 h-248v-238zM942 1708h248v238h-248v-238z" />
<glyph unicode="&#xcc;" horiz-adv-x="409" d="M-78 1933l225 -225h115l-225 225h-115zM82 0h246v1577h-246v-1577z" />
<glyph unicode="&#xcd;" horiz-adv-x="409" d="M82 0h246v1577h-246v-1577zM147 1708h115l225 225h-114z" />
<glyph unicode="&#xce;" horiz-adv-x="409" d="M-12 1708h118l99 111l98 -111h51h68l-182 211h-70zM82 0h246v1577h-246v-1577z" />
<glyph unicode="&#xcf;" horiz-adv-x="409" d="M-82 1708h248v238h-248v-238zM82 0h246v1577h-246v-1577zM244 1708h248v238h-248v-238z" />
<glyph unicode="&#xd0;" horiz-adv-x="1744" d="M39 692h248v-692h737q150 0 271.5 48t208.5 145.5t134.5 246t47.5 348.5q0 201 -47.5 349.5t-134.5 246t-208.5 145.5t-271.5 48h-737v-690h-248v-195zM532 193v499h248v195h-248v497h451q35 0 80 -5t93 -23.5t95 -56t83 -104.5t58.5 -166t22.5 -241q0 -141 -22.5 -240 t-58.5 -166t-83 -104.5t-95 -56t-93 -23.5t-80 -5h-451z" />
<glyph unicode="&#xd1;" horiz-adv-x="1515" d="M82 0h246v1241l833 -1241h273v1577h-248v-1247l-807 1247h-297v-1577zM440 1708h84v160q0 33 22.5 55.5t55.5 22.5t55.5 -22.5t22.5 -55.5v-43q0 -66 47 -114t115 -48q66 0 114 48t48 114v203h-84v-160q0 -33 -23 -55.5t-55 -22.5q-33 0 -55.5 22.5t-22.5 55.5v43 q0 66 -47 114t-115 48t-115 -48.5t-47 -113.5v-203z" />
<glyph unicode="&#xd2;" horiz-adv-x="1642" d="M61 788q0 -211 53.5 -366.5t152 -257t238.5 -150.5t316 -49t316.5 49t239 150.5t151.5 257.5t53 366q0 211 -53 367t-151.5 257t-239 150.5t-316.5 49.5t-316 -49.5t-238.5 -150.5t-152 -257t-53.5 -367zM330 788q0 186 33.5 307.5t96 193t153.5 100t208 28.5 q115 0 206 -28.5t154.5 -100t97.5 -192.5t34 -308q0 -184 -34 -306t-97.5 -193.5t-154.5 -100t-206 -28.5q-117 0 -208 28.5t-153.5 100t-96 193.5t-33.5 306zM539 1933l225 -225h115l-226 225h-114z" />
<glyph unicode="&#xd3;" horiz-adv-x="1642" d="M61 788q0 -211 53.5 -366.5t152 -257t238.5 -150.5t316 -49t316.5 49t239 150.5t151.5 257.5t53 366q0 211 -53 367t-151.5 257t-239 150.5t-316.5 49.5t-316 -49.5t-238.5 -150.5t-152 -257t-53.5 -367zM330 788q0 186 33.5 307.5t96 193t153.5 100t208 28.5 q115 0 206 -28.5t154.5 -100t97.5 -192.5t34 -308q0 -184 -34 -306t-97.5 -193.5t-154.5 -100t-206 -28.5q-117 0 -208 28.5t-153.5 100t-96 193.5t-33.5 306zM764 1708h115l225 225h-115z" />
<glyph unicode="&#xd4;" horiz-adv-x="1642" d="M61 788q0 -211 53.5 -366.5t152 -257t238.5 -150.5t316 -49t316.5 49t239 150.5t151.5 257.5t53 366q0 211 -53 367t-151.5 257t-239 150.5t-316.5 49.5t-316 -49.5t-238.5 -150.5t-152 -257t-53.5 -367zM330 788q0 186 33.5 307.5t96 193t153.5 100t208 28.5 q115 0 206 -28.5t154.5 -100t97.5 -192.5t34 -308q0 -184 -34 -306t-97.5 -193.5t-154.5 -100t-206 -28.5q-117 0 -208 28.5t-153.5 100t-96 193.5t-33.5 306zM604 1708h119l98 111l99 -111h51h67l-182 211h-70z" />
<glyph unicode="&#xd5;" horiz-adv-x="1642" d="M61 788q0 -211 53.5 -366.5t152 -257t238.5 -150.5t316 -49t316.5 49t239 150.5t151.5 257.5t53 366q0 211 -53 367t-151.5 257t-239 150.5t-316.5 49.5t-316 -49.5t-238.5 -150.5t-152 -257t-53.5 -367zM330 788q0 186 33.5 307.5t96 193t153.5 100t208 28.5 q115 0 206 -28.5t154.5 -100t97.5 -192.5t34 -308q0 -184 -34 -306t-97.5 -193.5t-154.5 -100t-206 -28.5q-117 0 -208 28.5t-153.5 100t-96 193.5t-33.5 306zM539 1708h86v160q0 33 22.5 55.5t54.5 22.5q31 0 53.5 -22.5t22.5 -55.5v-43q0 -66 48 -114t114 -48q68 0 116 48 t48 114v203h-86v-160q0 -33 -22.5 -55.5t-55.5 -22.5q-31 0 -53.5 22.5t-22.5 55.5v43q0 33 -13 61.5t-34.5 51t-51.5 36t-63 13.5q-35 0 -64.5 -13.5t-51 -36t-34.5 -51t-13 -61.5v-203z" />
<glyph unicode="&#xd6;" horiz-adv-x="1642" d="M61 788q0 -211 53.5 -366.5t152 -257t238.5 -150.5t316 -49t316.5 49t239 150.5t151.5 257.5t53 366q0 211 -53 367t-151.5 257t-239 150.5t-316.5 49.5t-316 -49.5t-238.5 -150.5t-152 -257t-53.5 -367zM330 788q0 186 33.5 307.5t96 193t153.5 100t208 28.5 q115 0 206 -28.5t154.5 -100t97.5 -192.5t34 -308q0 -184 -34 -306t-97.5 -193.5t-154.5 -100t-206 -28.5q-117 0 -208 28.5t-153.5 100t-96 193.5t-33.5 306zM535 1708h247v238h-247v-238zM860 1708h248v238h-248v-238z" />
<glyph unicode="&#xd7;" horiz-adv-x="778" d="M61 600l140 -137l188 188l189 -188l139 137l-189 191l189 188l-139 141l-189 -192l-188 192l-140 -141l189 -188z" />
<glyph unicode="&#xd8;" horiz-adv-x="1642" d="M61 788q0 -205 47.5 -353t137.5 -249l-156 -186h135l97 115q98 -76 223 -113t276 -37q176 0 316.5 49t239 150.5t151.5 257.5t53 366q0 203 -46 352t-138 251l155 186h-135l-96 -115q-98 76 -223 113t-277 37q-176 0 -316 -49.5t-238.5 -150.5t-152 -257t-53.5 -367z M330 788q0 186 33.5 307.5t96 193t154 100t207.5 28.5q117 0 207.5 -27.5t149.5 -97.5l-775 -919q-74 147 -73 415zM465 287l774 917q35 -72 54.5 -174t19.5 -242q0 -184 -34 -306t-97.5 -193.5t-154.5 -100t-206 -28.5t-205 27.5t-151 99.5z" />
<glyph unicode="&#xd9;" horiz-adv-x="1509" d="M82 549q0 -299 170 -441.5t502 -142.5t502.5 142.5t170.5 441.5v1028h-247v-1036q0 -84 -26 -154t-78 -121t-133 -79.5t-189 -28.5q-109 0 -189 28.5t-133 79.5t-78.5 121t-25.5 154v1036h-246v-1028zM473 1933l225 -225h113l-225 225h-113z" />
<glyph unicode="&#xda;" horiz-adv-x="1509" d="M82 549q0 -299 170 -441.5t502 -142.5t502.5 142.5t170.5 441.5v1028h-247v-1036q0 -84 -26 -154t-78 -121t-133 -79.5t-189 -28.5q-109 0 -189 28.5t-133 79.5t-78.5 121t-25.5 154v1036h-246v-1028zM698 1708h113l225 225h-114z" />
<glyph unicode="&#xdb;" horiz-adv-x="1509" d="M82 549q0 -299 170 -441.5t502 -142.5t502.5 142.5t170.5 441.5v1028h-247v-1036q0 -84 -26 -154t-78 -121t-133 -79.5t-189 -28.5q-109 0 -189 28.5t-133 79.5t-78.5 121t-25.5 154v1036h-246v-1028zM537 1708h120l97 111l98 -111h53h66l-183 211h-69z" />
<glyph unicode="&#xdc;" horiz-adv-x="1509" d="M82 549q0 -299 170 -441.5t502 -142.5t502.5 142.5t170.5 441.5v1028h-247v-1036q0 -84 -26 -154t-78 -121t-133 -79.5t-189 -28.5q-109 0 -189 28.5t-133 79.5t-78.5 121t-25.5 154v1036h-246v-1028zM469 1708h248v238h-248v-238zM793 1708h247v238h-247v-238z" />
<glyph unicode="&#xdd;" horiz-adv-x="1542" d="M20 1577l623 -942v-635h248v635l633 942h-283l-469 -729l-465 729h-287zM717 1708h112l226 225h-115z" />
<glyph unicode="&#xde;" horiz-adv-x="1411" d="M82 0h246v283h497q109 0 205 29.5t167 91t112 156.5t41 228t-41 229.5t-112 158t-167 91t-205 29.5h-497v281h-246v-1577zM328 475v629h467q139 0 212.5 -69.5t73.5 -246.5q0 -176 -73.5 -244.5t-212.5 -68.5h-467z" />
<glyph unicode="&#xdf;" horiz-adv-x="1740" d="M51 936h205v-936h209v1180q0 55 14.5 90t39 54t56 27.5t66.5 8.5h150q68 0 122 -34t54 -105q0 -53 -31 -82t-98 -49q-59 -18 -101.5 -49t-68 -72t-36.5 -88t-11 -99q0 -63 18 -121.5t60 -103.5t111 -71.5t171 -26.5h268q14 0 45 -3t60.5 -17.5t52.5 -44t23 -81.5 q0 -51 -23 -79.5t-52.5 -43t-60 -17.5t-45.5 -3h-508v-170h613q137 0 221 84t84 238q0 156 -84 240.5t-221 84.5h-338q-14 0 -41 4t-52.5 18.5t-45 43t-19.5 78.5q0 66 28.5 95.5t61.5 39.5q115 41 168 113.5t53 185.5q0 66 -17 122t-57 97t-103.5 64.5t-155.5 23.5h-246 q-92 0 -155.5 -26.5t-103.5 -74t-57.5 -112t-17.5 -137.5v-74h-205v-172z" />
<glyph unicode="&#xe0;" horiz-adv-x="1189" d="M51 334q0 -166 97.5 -250t271.5 -84h690v780q0 100 -33 164t-80 100.5t-100 50t-94 13.5h-709v-172h631q176 0 176 -231v-33h-481q-174 0 -271.5 -86t-97.5 -252zM283 334q0 86 46 127t150 41h422v-332h-416q-109 0 -155.5 40t-46.5 124zM299 1495l223 -225h115l-225 225 h-113z" />
<glyph unicode="&#xe1;" horiz-adv-x="1189" d="M51 334q0 -166 97.5 -250t271.5 -84h690v780q0 100 -33 164t-80 100.5t-100 50t-94 13.5h-709v-172h631q176 0 176 -231v-33h-481q-174 0 -271.5 -86t-97.5 -252zM283 334q0 86 46 127t150 41h422v-332h-416q-109 0 -155.5 40t-46.5 124zM522 1270h115l225 225h-114z" />
<glyph unicode="&#xe2;" horiz-adv-x="1189" d="M51 334q0 -166 97.5 -250t271.5 -84h690v780q0 100 -33 164t-80 100.5t-100 50t-94 13.5h-709v-172h631q176 0 176 -231v-33h-481q-174 0 -271.5 -86t-97.5 -252zM283 334q0 86 46 127t150 41h422v-332h-416q-109 0 -155.5 40t-46.5 124zM352 1270h121l96 110l99 -110h51 h67l-182 211h-69z" />
<glyph unicode="&#xe3;" horiz-adv-x="1189" d="M51 334q0 -166 97.5 -250t271.5 -84h690v780q0 100 -33 164t-80 100.5t-100 50t-94 13.5h-709v-172h631q176 0 176 -231v-33h-481q-174 0 -271.5 -86t-97.5 -252zM283 334q0 86 46 127t150 41h422v-332h-416q-109 0 -155.5 40t-46.5 124zM299 1270h84v160q0 33 22.5 55 t55.5 22t54.5 -22t21.5 -55v-44q0 -66 48 -113.5t115 -47.5q66 0 114 48t48 113v203h-86v-159q0 -33 -22.5 -55.5t-53.5 -22.5q-33 0 -55 22.5t-22 55.5v43q0 33 -13.5 61.5t-35 51t-51 35.5t-62.5 13q-68 0 -115 -48t-47 -113v-203z" />
<glyph unicode="&#xe4;" horiz-adv-x="1189" d="M51 334q0 -166 97.5 -250t271.5 -84h690v780q0 100 -33 164t-80 100.5t-100 50t-94 13.5h-709v-172h631q176 0 176 -231v-33h-481q-174 0 -271.5 -86t-97.5 -252zM283 334q0 86 46 127t150 41h422v-332h-416q-109 0 -155.5 40t-46.5 124zM295 1270h246v237h-246v-237z M618 1270h248v237h-248v-237z" />
<glyph unicode="&#xe5;" horiz-adv-x="1189" d="M51 334q0 -166 97.5 -250t271.5 -84h690v780q0 100 -33 164t-80 100.5t-100 50t-94 13.5h-709v-172h631q176 0 176 -231v-33h-481q-174 0 -271.5 -86t-97.5 -252zM283 334q0 86 46 127t150 41h422v-332h-416q-109 0 -155.5 40t-46.5 124zM326 1511q0 -53 20.5 -99t54 -81 t79.5 -54.5t100 -19.5q51 0 98 19.5t81 54.5t54.5 81t20.5 99q0 51 -20.5 97.5t-54.5 81t-81 54t-98 19.5q-53 0 -99.5 -19.5t-80 -54t-54 -80.5t-20.5 -98zM453 1511q0 53 36.5 90t90.5 37q53 0 92 -37t39 -90t-39 -91t-92 -38t-90 38t-37 91z" />
<glyph unicode="&#xe6;" horiz-adv-x="1863" d="M51 334q0 -166 97.5 -250t271.5 -84h690v66q49 -31 110.5 -48.5t133.5 -17.5h458v170h-393q-78 0 -134 24.5t-93 67.5t-56.5 99.5t-25.5 117.5h678v168h-676q8 57 28.5 110.5t57.5 92.5t91 62.5t130 23.5h393v172h-458q-98 0 -174 -30.5t-133 -86.5q-55 70 -124 93.5 t-120 23.5h-709v-172h631q176 0 176 -231v-33h-481q-174 0 -271.5 -86t-97.5 -252zM283 334q0 86 46 127t150 41h422v-332h-416q-109 0 -155.5 40t-46.5 124z" />
<glyph unicode="&#xe7;" horiz-adv-x="1034" d="M51 553q0 -109 30 -209t88 -177t147.5 -122t207.5 -45h90v-57q0 -23 -16 -39q-20 -16 -41 -17h-35v-112h35q39 0 65.5 12t55.5 39q49 49 49 117v57h256v170h-393q-90 0 -150.5 33t-96.5 86t-51.5 122.5t-15.5 141.5t15.5 140.5t51.5 122.5t96.5 87t150.5 33h393v172h-459 q-119 0 -208 -45t-147 -122t-88 -177t-30 -211z" />
<glyph unicode="&#xe8;" horiz-adv-x="1034" d="M51 553q0 -109 30 -209t88 -177t147.5 -122t207.5 -45h459v170h-393q-78 0 -133.5 24.5t-92 67.5t-57 99.5t-26.5 117.5h677v168h-675q8 57 28.5 110.5t57.5 92.5t91 62.5t130 23.5h393v172h-459q-119 0 -208 -45t-147 -122t-88 -177t-30 -211zM338 1495l225 -225h115 l-225 225h-115z" />
<glyph unicode="&#xe9;" horiz-adv-x="1034" d="M51 553q0 -109 30 -209t88 -177t147.5 -122t207.5 -45h459v170h-393q-78 0 -133.5 24.5t-92 67.5t-57 99.5t-26.5 117.5h677v168h-675q8 57 28.5 110.5t57.5 92.5t91 62.5t130 23.5h393v172h-459q-119 0 -208 -45t-147 -122t-88 -177t-30 -211zM563 1270h115l225 225 h-115z" />
<glyph unicode="&#xea;" horiz-adv-x="1034" d="M51 553q0 -109 30 -209t88 -177t147.5 -122t207.5 -45h459v170h-393q-78 0 -133.5 24.5t-92 67.5t-57 99.5t-26.5 117.5h677v168h-675q8 57 28.5 110.5t57.5 92.5t91 62.5t130 23.5h393v172h-459q-119 0 -208 -45t-147 -122t-88 -177t-30 -211zM401 1270h119l98 110 l99 -110h51h68l-183 211h-69z" />
<glyph unicode="&#xeb;" horiz-adv-x="1034" d="M51 553q0 -109 30 -209t88 -177t147.5 -122t207.5 -45h459v170h-393q-78 0 -133.5 24.5t-92 67.5t-57 99.5t-26.5 117.5h677v168h-675q8 57 28.5 110.5t57.5 92.5t91 62.5t130 23.5h393v172h-459q-119 0 -208 -45t-147 -122t-88 -177t-30 -211zM334 1270h248v237h-248 v-237zM659 1270h248v237h-248v-237z" />
<glyph unicode="&#xec;" horiz-adv-x="411" d="M-78 1495l225 -225h115l-225 225h-115zM102 0h207v1108h-207v-1108z" />
<glyph unicode="&#xed;" horiz-adv-x="411" d="M102 0h207v1108h-207v-1108zM150 1270h114l225 225h-114z" />
<glyph unicode="&#xee;" horiz-adv-x="411" d="M-10 1270h119l98 110l98 -110h51h68l-182 211h-70zM102 0h207v1108h-207v-1108z" />
<glyph unicode="&#xef;" horiz-adv-x="411" d="M-82 1270h248v237h-248v-237zM102 0h207v1108h-207v-1108zM244 1270h248v237h-248v-237z" />
<glyph unicode="&#xf0;" d="M51 553q0 -127 27.5 -233.5t93.5 -184.5t177.5 -121t281.5 -43q168 0 280.5 43t178 121t93 184.5t27.5 233.5q0 186 -29.5 324.5t-81.5 237.5t-125 166t-159 112l125 127h-100l-95 -95q-84 37 -165.5 58.5t-135.5 36.5h-139q111 -29 205 -66t172 -94l-96 -94h102l49 51 q51 -45 88 -100.5t60 -114.5q-104 33 -254 33q-170 0 -281.5 -43t-177.5 -120t-93.5 -184.5t-27.5 -234.5zM276 553q0 86 15.5 160.5t55.5 130t108.5 88.5t175.5 33q106 0 174.5 -33t108.5 -88.5t55.5 -130t15.5 -160.5t-15.5 -161t-55.5 -130t-108.5 -88t-174.5 -33 t-175 33t-109 88t-55.5 130t-15.5 161z" />
<glyph unicode="&#xf1;" horiz-adv-x="1153" d="M102 0h207v936h322q74 0 119 -22.5t70.5 -57.5t34.5 -79t9 -87v-690h209v737q0 188 -101.5 279.5t-289.5 91.5h-580v-1108zM307 1270h84v160q0 33 22.5 55t55.5 22t54.5 -22t21.5 -55v-44q0 -66 48 -113.5t116 -47.5q66 0 113.5 48t47.5 113v203h-86v-159 q0 -33 -22.5 -55.5t-52.5 -22.5q-33 0 -55.5 22.5t-22.5 55.5v43q0 33 -13.5 61.5t-35 51t-51 35.5t-62.5 13q-68 0 -115 -48t-47 -113v-203z" />
<glyph unicode="&#xf2;" d="M51 553q0 -127 27.5 -233.5t93.5 -184.5t177.5 -121t281.5 -43q168 0 280.5 43t178 121t93 184.5t27.5 233.5t-27.5 234.5t-93 184.5t-178 120t-280.5 43q-170 0 -281.5 -43t-177.5 -120t-93.5 -184.5t-27.5 -234.5zM276 553q0 86 15.5 160.5t55.5 130t108.5 88.5 t175.5 33q106 0 174.5 -33t108.5 -88.5t55.5 -130t15.5 -160.5t-15.5 -161t-55.5 -130t-108.5 -88t-174.5 -33t-175 33t-109 88t-55.5 130t-15.5 161zM348 1495l225 -225h115l-225 225h-115z" />
<glyph unicode="&#xf3;" d="M51 553q0 -127 27.5 -233.5t93.5 -184.5t177.5 -121t281.5 -43q168 0 280.5 43t178 121t93 184.5t27.5 233.5t-27.5 234.5t-93 184.5t-178 120t-280.5 43q-170 0 -281.5 -43t-177.5 -120t-93.5 -184.5t-27.5 -234.5zM276 553q0 86 15.5 160.5t55.5 130t108.5 88.5 t175.5 33q106 0 174.5 -33t108.5 -88.5t55.5 -130t15.5 -160.5t-15.5 -161t-55.5 -130t-108.5 -88t-174.5 -33t-175 33t-109 88t-55.5 130t-15.5 161zM573 1270h115l225 225h-114z" />
<glyph unicode="&#xf4;" d="M51 553q0 -127 27.5 -233.5t93.5 -184.5t177.5 -121t281.5 -43q168 0 280.5 43t178 121t93 184.5t27.5 233.5t-27.5 234.5t-93 184.5t-178 120t-280.5 43q-170 0 -281.5 -43t-177.5 -120t-93.5 -184.5t-27.5 -234.5zM276 553q0 86 15.5 160.5t55.5 130t108.5 88.5 t175.5 33q106 0 174.5 -33t108.5 -88.5t55.5 -130t15.5 -160.5t-15.5 -161t-55.5 -130t-108.5 -88t-174.5 -33t-175 33t-109 88t-55.5 130t-15.5 161zM414 1270h118l99 110l96 -110h53h68l-182 211h-70z" />
<glyph unicode="&#xf5;" d="M51 553q0 -127 27.5 -233.5t93.5 -184.5t177.5 -121t281.5 -43q168 0 280.5 43t178 121t93 184.5t27.5 233.5t-27.5 234.5t-93 184.5t-178 120t-280.5 43q-170 0 -281.5 -43t-177.5 -120t-93.5 -184.5t-27.5 -234.5zM276 553q0 86 15.5 160.5t55.5 130t108.5 88.5 t175.5 33q106 0 174.5 -33t108.5 -88.5t55.5 -130t15.5 -160.5t-15.5 -161t-55.5 -130t-108.5 -88t-174.5 -33t-175 33t-109 88t-55.5 130t-15.5 161zM348 1270h86v160q0 33 22.5 55t55.5 22q31 0 53.5 -22t22.5 -55v-44q0 -66 48 -113.5t114 -47.5q68 0 115.5 48t47.5 113 v203h-86v-159q0 -33 -22.5 -55.5t-54.5 -22.5q-31 0 -53.5 22.5t-22.5 55.5v43q0 33 -13.5 61.5t-35 51t-51 35.5t-62.5 13q-35 0 -64.5 -13t-51 -35.5t-35 -51.5t-13.5 -61v-203z" />
<glyph unicode="&#xf6;" d="M51 553q0 -127 27.5 -233.5t93.5 -184.5t177.5 -121t281.5 -43q168 0 280.5 43t178 121t93 184.5t27.5 233.5t-27.5 234.5t-93 184.5t-178 120t-280.5 43q-170 0 -281.5 -43t-177.5 -120t-93.5 -184.5t-27.5 -234.5zM276 553q0 86 15.5 160.5t55.5 130t108.5 88.5 t175.5 33q106 0 174.5 -33t108.5 -88.5t55.5 -130t15.5 -160.5t-15.5 -161t-55.5 -130t-108.5 -88t-174.5 -33t-175 33t-109 88t-55.5 130t-15.5 161zM344 1270h248v237h-248v-237zM670 1270h248v237h-248v-237z" />
<glyph unicode="&#xf8;" d="M51 553q0 -135 31 -245.5t102 -188.5l-104 -119h135l49 57q66 -41 157 -63.5t210 -22.5q168 0 280.5 43t178 121t93 184.5t27.5 233.5q0 135 -30.5 245.5t-102.5 188.5l105 121h-135l-50 -57q-131 84 -366 84q-170 0 -281.5 -43t-177.5 -120t-93.5 -184.5t-27.5 -234.5z M276 553q0 86 15.5 160.5t55.5 130t108.5 88.5t175.5 33q78 0 135 -17.5t98 -50.5l-534 -608q-29 53 -41.5 121.5t-12.5 142.5zM397 211l533 608q31 -55 43 -122.5t12 -143.5q0 -86 -15.5 -161t-55.5 -130t-108.5 -88t-174.5 -33q-80 0 -136.5 17.5t-97.5 52.5z" />
<glyph unicode="&#xf9;" horiz-adv-x="1153" d="M82 369q0 -188 100.5 -278.5t290.5 -90.5h580v1108h-209v-938h-322q-74 0 -119 22.5t-69.5 58.5t-33.5 80t-9 87v690h-209v-739zM287 1495l225 -225h113l-226 225h-112z" />
<glyph unicode="&#xfa;" horiz-adv-x="1153" d="M82 369q0 -188 100.5 -278.5t290.5 -90.5h580v1108h-209v-938h-322q-74 0 -119 22.5t-69.5 58.5t-33.5 80t-9 87v690h-209v-739zM512 1270h113l225 225h-115z" />
<glyph unicode="&#xfb;" horiz-adv-x="1153" d="M82 369q0 -188 100.5 -278.5t290.5 -90.5h580v1108h-209v-938h-322q-74 0 -119 22.5t-69.5 58.5t-33.5 80t-9 87v690h-209v-739zM350 1270h121l96 110l99 -110h51h67l-182 211h-70z" />
<glyph unicode="&#xfc;" horiz-adv-x="1153" d="M82 369q0 -188 100.5 -278.5t290.5 -90.5h580v1108h-209v-938h-322q-74 0 -119 22.5t-69.5 58.5t-33.5 80t-9 87v690h-209v-739zM283 1270h245v237h-245v-237zM606 1270h248v237h-248v-237z" />
<glyph unicode="&#xfd;" horiz-adv-x="1169" d="M102 346q0 -63 18.5 -125.5t59.5 -112t108.5 -79t166.5 -29.5h405v-59q0 -59 -42 -85t-107 -26h-578v-170h643q98 0 156.5 29.5t88.5 75t39 97.5t9 97v1149h-209v-938h-352q-27 0 -60.5 9t-64.5 30.5t-52.5 56.5t-21.5 88v754h-207v-762zM512 1270h113l225 225h-115z" />
<glyph unicode="&#xfe;" horiz-adv-x="1191" d="M102 -340h207v340h359q119 0 208 45t147 122t88 177t30 209q0 111 -30 211t-88 177t-147.5 122t-207.5 45h-359v342h-207v-1790zM309 170v766h293q90 0 150.5 -33t97.5 -87t52.5 -122.5t15.5 -140.5t-15.5 -141.5t-52.5 -122.5t-97.5 -86t-150.5 -33h-293z" />
<glyph unicode="&#xff;" horiz-adv-x="1169" d="M102 346q0 -63 18.5 -125.5t59.5 -112t108.5 -79t166.5 -29.5h405v-59q0 -59 -42 -85t-107 -26h-578v-170h643q98 0 156.5 29.5t88.5 75t39 97.5t9 97v1149h-209v-938h-352q-27 0 -60.5 9t-64.5 30.5t-52.5 56.5t-21.5 88v754h-207v-762zM303 1270h246v237h-246v-237z M627 1270h247v237h-247v-237z" />
<glyph unicode="&#x152;" horiz-adv-x="2310" d="M61 788q0 -211 53.5 -366.5t152 -257t238.5 -150.5t316 -49q311 0 504 152q92 -59 198.5 -88t221.5 -29h504v193h-469q-125 0 -211 38.5t-141.5 107.5t-83 163t-33.5 205h913v192h-911q8 106 36.5 195.5t84 154t140.5 100t208 35.5h467v193h-504q-119 0 -225.5 -28.5 t-196.5 -88.5q-98 78 -224 115t-278 37q-176 0 -316 -49.5t-238.5 -150.5t-152 -257t-53.5 -367zM330 788q0 186 33.5 307.5t96 193t154 100t207.5 28.5q111 0 197 -24.5t147 -83.5q-66 -96 -102.5 -224.5t-36.5 -296.5q0 -170 36.5 -297t102.5 -219q-63 -63 -149 -87.5 t-195 -24.5q-117 0 -208 28.5t-153.5 100t-96 193.5t-33.5 306z" />
<glyph unicode="&#x153;" horiz-adv-x="1740" d="M51 553q0 -127 27.5 -233.5t93.5 -184.5t177.5 -121t281.5 -43q238 0 366 88q100 -59 234 -59h459v170h-394q-78 0 -134 24.5t-93 67.5t-57.5 99.5t-26.5 117.5h680v168h-678q8 57 29.5 110.5t58.5 92.5t91.5 62.5t129.5 23.5h394v172h-459q-70 0 -128.5 -15t-105.5 -44 q-133 86 -366 86q-170 0 -281.5 -43t-177.5 -120t-93.5 -184.5t-27.5 -234.5zM276 553q0 86 15.5 160.5t55.5 130t108.5 88.5t175.5 33q80 0 135 -17.5t84 -42.5q-47 -74 -70.5 -164t-23.5 -188t23.5 -187.5t70.5 -162.5q-94 -61 -219 -62q-106 0 -175 33t-109 88t-55.5 130 t-15.5 161z" />
<glyph unicode="&#x178;" horiz-adv-x="1542" d="M20 1577l623 -942v-635h248v635l633 942h-283l-469 -729l-465 729h-287zM487 1708h246v238h-246v-238zM811 1708h248v238h-248v-238z" />
<glyph unicode="&#x2c6;" horiz-adv-x="512" d="M39 1366h119l98 113l96 -113h54h67l-182 211h-70z" />
<glyph unicode="&#x2dc;" horiz-adv-x="641" d="M39 1247h84v160q0 33 22.5 55.5t55.5 22.5t55.5 -22.5t22.5 -55.5v-43q0 -66 47 -114t114 -48q66 0 114 48t48 114v203h-86v-160q0 -33 -21.5 -54.5t-54.5 -21.5t-55.5 21.5t-22.5 54.5v43q0 66 -47 114t-114 48q-68 0 -115 -48t-47 -114v-203z" />
<glyph unicode="&#x2000;" horiz-adv-x="1103" />
<glyph unicode="&#x2001;" horiz-adv-x="2206" />
<glyph unicode="&#x2002;" horiz-adv-x="1103" />
<glyph unicode="&#x2003;" horiz-adv-x="2206" />
<glyph unicode="&#x2004;" horiz-adv-x="735" />
<glyph unicode="&#x2005;" horiz-adv-x="551" />
<glyph unicode="&#x2006;" horiz-adv-x="367" />
<glyph unicode="&#x2007;" horiz-adv-x="367" />
<glyph unicode="&#x2008;" horiz-adv-x="275" />
<glyph unicode="&#x2009;" horiz-adv-x="441" />
<glyph unicode="&#x200a;" horiz-adv-x="122" />
<glyph unicode="&#x2010;" horiz-adv-x="808" d="M39 692h731v197h-731v-197z" />
<glyph unicode="&#x2011;" horiz-adv-x="808" d="M39 692h731v197h-731v-197z" />
<glyph unicode="&#x2012;" horiz-adv-x="808" d="M39 692h731v197h-731v-197z" />
<glyph unicode="&#x2013;" horiz-adv-x="1091" d="M39 692h1014v197h-1014v-197z" />
<glyph unicode="&#x2014;" horiz-adv-x="2105" d="M39 692h2027v197h-2027v-197z" />
<glyph unicode="&#x2018;" horiz-adv-x="323" d="M39 1071h248v238h-92l92 303h-78l-170 -303v-238z" />
<glyph unicode="&#x2019;" horiz-adv-x="323" d="M39 1071h76l172 303v238h-248v-238h90z" />
<glyph unicode="&#x201a;" horiz-adv-x="323" d="M39 0h90l-90 -305h76l172 305v238h-248v-238z" />
<glyph unicode="&#x201c;" horiz-adv-x="649" d="M39 1071h248v238h-92l92 303h-78l-170 -303v-238zM362 1071h248v238h-92l92 303h-78l-170 -303v-238z" />
<glyph unicode="&#x201d;" horiz-adv-x="649" d="M39 1071h76l172 303v238h-248v-238h90zM362 1071h78l170 303v238h-248v-238h93z" />
<glyph unicode="&#x201e;" horiz-adv-x="649" d="M39 0h90l-90 -305h76l172 305v238h-248v-238zM362 0h93l-93 -305h78l170 305v238h-248v-238z" />
<glyph unicode="&#x2022;" horiz-adv-x="550" d="M51 788q0 -47 17.5 -88t48 -71.5t71.5 -48t88 -17.5q45 0 86 17.5t72 48t49.5 71.5t18.5 88t-18.5 88.5t-49.5 72t-71.5 48t-86.5 17.5q-47 0 -88 -17.5t-71.5 -48t-48 -72t-17.5 -88.5z" />
<glyph unicode="&#x2026;" horiz-adv-x="972" d="M39 0h248v238h-248v-238zM362 0h248v238h-248v-238zM688 0h246v238h-246v-238z" />
<glyph unicode="&#x202f;" horiz-adv-x="441" />
<glyph unicode="&#x2039;" horiz-adv-x="505" d="M20 721l424 -367v138l-344 296l344 302v133l-424 -365v-137z" />
<glyph unicode="&#x203a;" horiz-adv-x="505" d="M61 354l424 367v137l-424 365v-133l345 -302l-345 -296v-138z" />
<glyph unicode="&#x205f;" horiz-adv-x="551" />
<glyph unicode="&#x2122;" horiz-adv-x="2361" d="M41 1444h342v-971h174v971h344v133h-860v-133zM1063 473h172v913l354 -913h176l340 913v-913h176v1104h-260l-335 -901l-340 901h-283v-1104z" />
<glyph unicode="&#xe000;" horiz-adv-x="1105" d="M0 0v1106h1106v-1106h-1106z" />
</font>
</defs>
</svg>
